<svg xmlns="http://www.w3.org/2000/svg" width="12px" height="12px" viewBox="0 0 12 12">
<path fill="#00A9E0" d="M7.75,12h-6C0.785,12,0,11.215,0,10.25v-6C0,3.285,0.785,2.5,1.75,2.5h3c0.414,0,0.75,0.336,0.75,0.75
S5.164,4,4.75,4h-3C1.612,4,1.5,4.112,1.5,4.25v6c0,0.138,0.112,0.25,0.25,0.25h6C7.888,10.5,8,10.388,8,10.25v-3
C8,6.836,8.336,6.5,8.75,6.5S9.5,6.836,9.5,7.25v3C9.5,11.215,8.715,12,7.75,12z"/>
<path fill="#00A9E0" d="M11.947,0.488c-0.01-0.025-0.021-0.047-0.034-0.071C11.885,0.36,11.85,0.309,11.808,0.26
c-0.017-0.02-0.032-0.039-0.051-0.057c-0.06-0.055-0.125-0.101-0.201-0.135c-0.006-0.002-0.011-0.007-0.017-0.01
c-0.001,0-0.001-0.001-0.002-0.001c-0.084-0.035-0.172-0.049-0.26-0.052C11.268,0.005,11.26,0,11.25,0h-3.5C7.336,0,7,0.336,7,0.75
S7.336,1.5,7.75,1.5h1.689L4.72,6.22c-0.293,0.293-0.293,0.768,0,1.061C4.866,7.427,5.058,7.5,5.25,7.5s0.384-0.073,0.53-0.22
l4.72-4.72V4.25C10.5,4.664,10.836,5,11.25,5S12,4.664,12,4.25v-3.5C12,0.658,11.979,0.571,11.947,0.488z"/>
</svg>
