<svg xmlns="http://www.w3.org/2000/svg" width="32px" height="32px" viewBox="0 0 32 32">
<path fill="#FBB549" d="M32,19.446c0-1.473-0.904-2.751-2.24-3.44v-0.004l0,0c1.336-0.693,2.24-1.975,2.24-3.444
c0-2.201-2.018-3.981-4.5-3.981c-1.215,0-2.317,0.428-3.128,1.122c-0.008,0.004-0.008,0.004-0.008,0.008
c-2.334,1.617-5.622,6.295-5.622,6.295s3.288,4.679,5.622,6.296c0,0,0,0,0.008,0.004c0.811,0.697,1.913,1.13,3.128,1.13
C29.982,23.432,32,21.646,32,19.446"/>
<path fill="#F182AE" d="M0,12.558c0,1.469,0.904,2.75,2.244,3.444H2.24l0.004,0.004C0.904,16.695,0,17.974,0,19.446
c0,2.196,2.018,3.985,4.503,3.985c1.216,0,2.322-0.437,3.125-1.13c0.008-0.004,0.008-0.004,0.008-0.004
c2.341-1.617,5.625-6.296,5.625-6.296s-3.284-4.679-5.625-6.295c0-0.004,0-0.004-0.008-0.008C6.825,9.005,5.719,8.577,4.503,8.577
C2.018,8.577,0,10.357,0,12.558"/>
<path fill="#8BC53F" d="M12.556,31.998c1.473,0,2.75-0.9,3.444-2.24v0.004v-0.004c0.693,1.34,1.972,2.24,3.444,2.24
c2.204,0,3.981-2.014,3.981-4.496c0-1.219-0.429-2.321-1.122-3.128c-0.004-0.008-0.004-0.008-0.008-0.012
C20.679,22.028,16,18.74,16,18.74s-4.675,3.288-6.292,5.622c-0.004,0.004-0.004,0.004-0.008,0.012
c-0.698,0.807-1.126,1.909-1.126,3.128C8.575,29.984,10.355,31.998,12.556,31.998"/>
<path fill="#6DCEF5" d="M19.444,0.002c-1.473,0-2.751,0.9-3.44,2.24H16l0,0c-0.693-1.34-1.971-2.24-3.444-2.24
c-2.201,0-3.981,2.014-3.981,4.5c0,1.216,0.428,2.318,1.126,3.128c0.004,0.008,0.004,0.008,0.008,0.008
C11.325,9.975,16,13.259,16,13.259s4.679-3.284,6.3-5.622c0,0,0,0,0.004-0.008c0.693-0.811,1.126-1.913,1.126-3.128
C23.43,2.016,21.645,0.002,19.444,0.002"/>
</svg>
